<svg width="600" height="600" xmlns="http://www.w3.org/2000/svg"><g style="stroke-width:1.05103"><path style="color:#000;fill:#000;stroke-linecap:round;stroke-linejoin:round;-inkscape-stroke:none;paint-order:stroke fill markers" d="M132.506 39.773c-80.787 0-147.111 66.381-147.111 147.176v231.324c0 80.795 66.324 147.176 147.11 147.176h336.206c80.787 0 147.113-66.38 147.113-147.176V186.95c0-80.795-66.326-147.176-147.113-147.176zm0 84.082H468.71c35.632 0 63.03 27.4 63.03 63.094v231.324c0 35.695-27.398 63.094-63.03 63.094H132.506c-35.632 0-63.03-27.399-63.03-63.094V186.95c0-35.694 27.398-63.094 63.03-63.094z" transform="matrix(.95173 0 0 .95116 13.901 12.169)"/><path style="color:#000;fill:#000;stroke-linecap:round;stroke-linejoin:round;-inkscape-stroke:none" d="M67.465 81.887a42.041 42.041 0 0 0-29.113 13.705 42.041 42.041 0 0 0 2.81 59.388l231.156 210.272a42.046 42.046 0 0 0 56.58 0L560.055 154.98a42.041 42.041 0 0 0 2.81-59.388 42.041 42.041 0 0 0-59.388-2.809L300.609 277.318 97.74 92.783a42.041 42.041 0 0 0-30.275-10.896z" transform="matrix(.95173 0 0 .95116 13.901 12.169)"/><path style="color:#000;fill:#000;-inkscape-stroke:none" d="m418.541 322.936-45.697 43.459 130.795 137.53 45.697-43.458zM183.543 323.117 52.748 462.85l46.04 43.095 130.794-139.732z" transform="matrix(.95173 0 0 .95116 13.407 12.169)"/></g></svg>